<svg viewBox="0 0 500 500" xmlns="http://www.w3.org/2000/svg"><circle cx="90.25" cy="270" fill="#e9f3ff" r="7.88"/><circle cx="70.63" cy="259.88" fill="#e9f3ff" r="2.25"/><circle cx="329.25" cy="111.29" fill="#e9f3ff" r="3.38"/><circle cx="259.25" cy="47.63" fill="#e9f3ff" r="5.5"/><circle cx="273.41" cy="56.47" fill="#e9f3ff" r="1.85"/><circle cx="235.46" cy="36.93" fill="#e9f3ff" r="1.55"/><circle cx="141.31" cy="48.75" fill="#e9f3ff" r="4.38"/><circle cx="127.41" cy="40.74" fill="#e9f3ff" r="1.91"/><g fill="#404b7c"><path d="m226.25 49.33a.5.5 0 0 1 -.5-.5v-3.33a.5.5 0 0 1 1 0v3.33a.5.5 0 0 1 -.5.5z"/><path d="m231.81 51.56h-3.33a.5.5 0 1 1 0-1h3.33a.5.5 0 0 1 0 1z"/><path d="m226.25 57.13a.5.5 0 0 1 -.5-.5v-3.33a.5.5 0 1 1 1 0v3.33a.5.5 0 0 1 -.5.5z"/><path d="m224 51.56h-3.33a.5.5 0 0 1 0-1h3.33a.5.5 0 1 1 0 1z"/><path d="m162.14 276.22a.5.5 0 0 1 -.5-.5v-3.32a.5.5 0 0 1 1 0v3.33a.5.5 0 0 1 -.5.49z"/><path d="m167.7 278.46h-3.33a.5.5 0 0 1 0-1h3.33a.5.5 0 1 1 0 1z"/><path d="m162.14 284a.5.5 0 0 1 -.5-.5v-3.33a.5.5 0 0 1 1 0v3.33a.5.5 0 0 1 -.5.5z"/><path d="m159.91 278.46h-3.33a.5.5 0 0 1 0-1h3.33a.5.5 0 0 1 0 1z"/><path d="m65.06 234.93a.5.5 0 0 1 -.5-.5v-3.33a.5.5 0 0 1 1 0v3.33a.5.5 0 0 1 -.5.5z"/><path d="m70.63 237.16h-3.33a.5.5 0 1 1 0-1h3.33a.5.5 0 0 1 0 1z"/><path d="m65.06 242.73a.5.5 0 0 1 -.5-.5v-3.33a.5.5 0 1 1 1 0v3.33a.5.5 0 0 1 -.5.5z"/><path d="m62.83 237.16h-3.33a.5.5 0 0 1 0-1h3.33a.5.5 0 1 1 0 1z"/><path d="m271 263.7a.5.5 0 0 1 -.5-.5v-3.33a.5.5 0 0 1 1 0v3.33a.5.5 0 0 1 -.5.5z"/><path d="m276.56 265.94h-3.33a.5.5 0 1 1 0-1h3.33a.5.5 0 0 1 0 1z"/><path d="m271 271.5a.5.5 0 0 1 -.5-.5v-3.33a.5.5 0 1 1 1 0v3.33a.5.5 0 0 1 -.5.5z"/><path d="m268.77 265.94h-3.33a.5.5 0 0 1 0-1h3.33a.5.5 0 1 1 0 1z"/><path d="m321.33 95.37a.5.5 0 0 1 -.5-.5v-3.33a.5.5 0 0 1 1 0v3.33a.5.5 0 0 1 -.5.5z"/><path d="m326.9 97.6h-3.33a.5.5 0 0 1 0-1h3.33a.5.5 0 0 1 0 1z"/><path d="m321.33 103.17a.5.5 0 0 1 -.5-.5v-3.33a.5.5 0 0 1 1 0v3.33a.5.5 0 0 1 -.5.5z"/><path d="m319.1 97.6h-3.33a.5.5 0 0 1 0-1h3.33a.5.5 0 0 1 0 1z"/></g><path d="m57 42.12a35.13 35.13 0 1 0 49.67 0 35.12 35.12 0 0 0 -49.67 0zm37.13 37.1a17.33 17.33 0 1 1 0-24.52 17.33 17.33 0 0 1 0 24.52z" fill="#e9f3ff"/><path d="m81.87 33.85v13.79a19.33 19.33 0 1 1 -19.32 19.36h-13.79a33.12 33.12 0 1 0 33.11-33.15z" fill="#ecbdbb"/><path d="m188.03 244.33h17.18v229.34h-17.18z" fill="#9ab3da"/><path d="m188.03 244.34h17.19v16.45l-17.19 1.59z" fill="#404b7c"/><path d="m156.49 244.34-7.3 21.66-69.97 207.68h-17.19l69.41-206.03 7.85-23.31z" fill="#9ab3da"/><path d="m139.29 244.34h17.2l-7.3 21.66-17.75 1.65z" fill="#404b7c"/><path d="m331.21 473.68h-17.17l-72.85-216.24-4.43-13.1h17.2l3.89 11.54z" fill="#9ab3da"/><path d="m257.85 255.88-16.66 1.56-4.43-13.1h17.2z" fill="#404b7c"/><path d="m85.04 73.96h223v172h-223z" fill="#e9f3ff"/><path d="m82.38 71.58h228.5v8h-228.5z" fill="#9ab3da"/><path d="m82.38 240.33h228.5v8h-228.5z" fill="#9ab3da"/><path d="m154.36 69.25h84.53a2.52 2.52 0 0 1 2.52 2.52v9.84a6.39 6.39 0 0 1 -6.41 6.39h-76.77a6.39 6.39 0 0 1 -6.39-6.39v-9.84a2.52 2.52 0 0 1 2.52-2.52z" fill="#404b7c"/><circle cx="159.34" cy="77.5" fill="#fff" r="2.69"/><circle cx="233.91" cy="77.5" fill="#fff" r="2.69"/><path d="m180.41 64.5h32.44a1 1 0 0 1 1 1v3.78a0 0 0 0 1 0 0h-34.41a0 0 0 0 1 0 0v-3.81a1 1 0 0 1 .97-.97z" fill="#9ab3da"/><path d="m259.24 138.45-28.17 28.17a39.86 39.86 0 0 1 0-56.34z" fill="#ecbdbb"/><path d="m299.08 138.45h-39.84v-39.82a39.84 39.84 0 0 1 39.84 39.82z" fill="#fff"/><path d="m299.08 138.45a39.84 39.84 0 0 1 -68 28.17l28.17-28.17h39.84z" fill="#9ab3da"/><path d="m259.24 98.63v39.83l-28.17-28.17a39.75 39.75 0 0 1 28.17-11.66z" fill="#404b7c"/><rect fill="#e9f3ff" height="5.12" rx=".75" width="14.88" x="227.17" y="130.75"/><rect fill="#e9f3ff" height="5.12" rx=".75" width="14.88" x="227.17" y="139"/><rect fill="#fff" height="6.63" rx="1.44" width="35.63" x="253.75" y="189"/><rect fill="#fff" height="6.63" rx="1.44" width="24.63" x="264.75" y="204.13"/><rect fill="#fff" height="6.63" rx="1.44" width="10.75" x="278.63" y="219.25"/><rect fill="#9ab3da" height="15.38" rx="2.94" width="20.38" x="97" y="215.87"/><rect fill="#9ab3da" height="15.38" rx="2.94" width="84.56" x="125.5" y="215.88"/><path d="m96.04 111.96h22.8v76h-22.8z" fill="#ecbdbb"/><path d="m141.65 127.16h22.8v15.2h-22.8z" fill="#ecbdbb"/><path d="m164.45 142.36h22.8v15.2h-22.8z" fill="#ecbdbb"/><path d="m164.45 172.76h22.8v15.2h-22.8z" fill="#ecbdbb"/><path d="m210.06 112.46h-114.06a.5.5 0 0 1 0-1h114a.5.5 0 0 1 .06 1z" fill="#404b7c"/><path d="m210.06 127.66h-114.06a.5.5 0 0 1 0-1h114a.5.5 0 0 1 .06 1z" fill="#404b7c"/><path d="m210.06 142.86h-114.06a.5.5 0 0 1 0-1h114a.5.5 0 0 1 .06 1z" fill="#404b7c"/><path d="m210.06 158.06h-114.06a.5.5 0 0 1 0-1h114a.5.5 0 0 1 .06 1z" fill="#404b7c"/><path d="m210.06 173.26h-114.06a.5.5 0 1 1 0-1h114a.5.5 0 0 1 .06 1z" fill="#404b7c"/><path d="m210.06 188.46h-114.06a.5.5 0 0 1 0-1h114a.5.5 0 0 1 .06 1z" fill="#404b7c"/><path d="m96.04 187.96v-76" fill="#fff"/><path d="m96 188.46a.5.5 0 0 1 -.5-.5v-75.96a.5.5 0 0 1 1 0v76a.5.5 0 0 1 -.5.46z" fill="#404b7c"/><path d="m118.85 187.96v-76" fill="#fff"/><path d="m118.85 188.46a.5.5 0 0 1 -.5-.5v-75.96a.5.5 0 0 1 1 0v76a.5.5 0 0 1 -.5.46z" fill="#404b7c"/><path d="m141.65 187.96v-76" fill="#fff"/><path d="m141.65 188.46a.5.5 0 0 1 -.5-.5v-75.96a.5.5 0 0 1 1 0v76a.5.5 0 0 1 -.5.46z" fill="#404b7c"/><path d="m164.45 187.96v-76" fill="#fff"/><path d="m164.45 188.46a.5.5 0 0 1 -.5-.5v-75.96a.5.5 0 0 1 1 0v76a.5.5 0 0 1 -.5.46z" fill="#404b7c"/><path d="m187.26 187.96v-76" fill="#fff"/><path d="m187.26 188.46a.5.5 0 0 1 -.5-.5v-75.96a.5.5 0 1 1 1 0v76a.5.5 0 0 1 -.5.46z" fill="#404b7c"/><path d="m210.06 187.96v-76" fill="#fff"/><path d="m210.06 188.46a.5.5 0 0 1 -.5-.5v-75.96a.5.5 0 0 1 1 0v76a.5.5 0 0 1 -.5.46z" fill="#404b7c"/><path d="m96.04 103.88h114.02v8.08h-114.02z" fill="#404b7c"/><path d="m210.06 112.46h-114.06a.5.5 0 0 1 -.5-.5v-8.08a.5.5 0 0 1 .5-.5h114a.5.5 0 0 1 .5.5v8.12a.5.5 0 0 1 -.44.46zm-113.52-1h113v-7.08h-113z" fill="#404b7c"/><circle cx="95.38" cy="90.5" fill="#ecbdbb" r="3.5"/><circle cx="110.13" cy="90.5" fill="#ecbdbb" r="3.5"/><circle cx="124.88" cy="90.5" fill="#ecbdbb" r="3.5"/><rect fill="#404b7c" height="7.63" rx="1.25" width="7.63" x="227.63" y="201.62"/><path d="m224.38 205.94h-18.25a.5.5 0 0 1 -.46-.3l-10.37-23.31a.5.5 0 0 1 .91-.41l10.24 23h17.93a.5.5 0 0 1 0 1.02z" fill="#fff"/><path d="m152.38 205.94h-11.25a.5.5 0 0 1 0-1h10.75v-69.07a.5.5 0 0 1 1 0v69.57a.5.5 0 0 1 -.5.5z" fill="#fff"/><rect fill="#404b7c" height="7.63" rx="1.25" width="7.63" x="129.31" y="201.62"/><path d="m395.29 436.29-.86 4.89c-.77 4.51-1.81 10.53-1.81 10.69s-4.92 1.67-4.92 1.67l-5.16-2 .56-8 .52-7.37z" fill="#ecbdbb"/><path d="m395.29 436.29-.86 4.89c-2.63.55-7.39 1.57-11.33 2.39l.52-7.37z" fill="#404b7c"/><path d="m382.13 449.63a19.85 19.85 0 0 0 11.67.33s10.5 7.58 17.17 10 13 4.17 13 14.67h-47.97s-1.46-16.42 6.13-25z" fill="#404b7c"/><path d="m402.21 462a.49.49 0 0 1 -.21 0c-6.06-3-13.76-9-13.84-9.05a.5.5 0 1 1 .62-.79c.08.06 7.7 6 13.66 8.95a.5.5 0 0 1 -.23.89z" fill="#9ab3da"/><path d="m400.75 468.13s2.38-7.62 7.63-10.25c0 0 8.88 3 12.63 5.13s4 6.75 4 11.63h-49.88v-6.5h25.63z" fill="#f68d88"/><path d="m433 251.63s-14.67 95-17.34 108.33-17.33 78.67-17.33 78.67a86.68 86.68 0 0 1 -19.33-1c0-1 5.5-71.17 5.83-77.5.19-3.6-.54-27.74-1.2-48.2-.34-10.34-.66-19.74-.83-25.07-.09-2.67-.14-4.32-.14-4.56 0-1.67-2.64-41.4 11.67-56.67s40.05-2 38.67 26z" fill="#f68d88"/><path d="m402 378.6a6 6 0 0 1 -.68 0c-2.35-.27-4.38-1.91-5.72-4.62a18.37 18.37 0 0 1 2.12-18.31c1.92-2.33 4.26-3.47 6.62-3.19s4.38 1.91 5.72 4.62a17.13 17.13 0 0 1 1.4 9.44 17.13 17.13 0 0 1 -3.52 8.87 7.85 7.85 0 0 1 -5.94 3.19zm1.66-25.2a6.89 6.89 0 0 0 -5.17 2.87 17.38 17.38 0 0 0 -2 17.23c1.18 2.39 2.94 3.84 4.93 4.07s4-.77 5.73-2.83a16.11 16.11 0 0 0 3.3-8.35 16.11 16.11 0 0 0 -1.31-8.88c-1.18-2.39-2.94-3.84-4.93-4.07a4.74 4.74 0 0 0 -.5-.04z" fill="#ecbdbb"/><path d="m385 434.13a.5.5 0 0 1 -.45-.54c.06-.61 5.66-60.72 5.66-67.62s2-77.76 2-78.47a.52.52 0 0 1 .51-.49.5.5 0 0 1 .49.51c0 .71-2 71.53-2 78.44s-5.44 65.24-5.67 67.71a.5.5 0 0 1 -.54.46z" fill="#ecbdbb"/><path d="m394.88 278s-.91 16.1-11.2 34c-.34-10.34-.66-19.74-.83-25.07l3.95-1.23s6.46-4.91 8.08-7.7z" fill="#404b7c"/><path d="m315.06 426.54s-2.34 9.59-3 12.27c-1.16 4.43-2.7 10.34-2.76 10.48s3.79 3.55 3.79 3.55l5.53.31 2.78-7.49 5.2-13.87z" fill="#ecbdbb"/><path d="m315.06 426.54s-2.34 9.59-3 12.27c2.17 1.59 6.08 4.48 9.33 6.85l5.2-13.87z" fill="#404b7c"/><path d="m321.23 448.68s-7.33 2.17-13.33.33c0 0-10.5 7.58-17.17 10s-13 4.17-13 14.67h47.92s.91-16.55-4.42-25z" fill="#404b7c"/><path d="m300.5 460.63a.5.5 0 0 1 -.25-.93 81.46 81.46 0 0 0 11.17-8.13.5.5 0 1 1 .66.75 82.65 82.65 0 0 1 -11.33 8.24.51.51 0 0 1 -.25.07z" fill="#9ab3da"/><path d="m300.94 467.18s-2.37-7.62-7.62-10.25c0 0-8.87 3-12.62 5.13s-4 6.75-4 11.63h49.88v-6.5h-25.64z" fill="#f68d88"/><path d="m308.63 434.5 18.13 5s25.88-78.87 26.13-79.62 33.92-74.25 33.92-74.25.6-34.77 1.25-44c1-14.17-23.42-37.75-36.92 1s-26 110.75-28.25 118.25-14.26 73.62-14.26 73.62z" fill="#f68d88"/><path d="m331.84 371.45a6 6 0 0 1 -1.39-.16c-2.3-.55-4.12-2.42-5.13-5.26a18.37 18.37 0 0 1 4.27-17.93c2.18-2.09 4.65-2.93 7-2.39s4.12 2.42 5.13 5.26a17.13 17.13 0 0 1 .27 9.54 17.12 17.12 0 0 1 -4.55 8.39 8.19 8.19 0 0 1 -5.6 2.55zm3.33-24.9a7.23 7.23 0 0 0 -4.88 2.27 17.38 17.38 0 0 0 -4 16.87c.89 2.52 2.46 4.16 4.42 4.63s4.1-.29 6-2.14a16.12 16.12 0 0 0 4.26-7.9 16.12 16.12 0 0 0 -.24-9c-.89-2.52-2.46-4.16-4.42-4.63a4.93 4.93 0 0 0 -1.14-.1z" fill="#ecbdbb"/><path d="m386.79 286.13a.51.51 0 0 1 -.23-.05.5.5 0 0 1 -.27-.45v-45.17a.5.5 0 1 1 1 0v44.17c1.83-1.39 6.25-4.88 7.13-6.87s2.09-29.1 2.46-39.32a.49.49 0 0 1 .52-.48.5.5 0 0 1 .48.52c-.14 3.78-1.37 37-2.54 39.68s-8 7.67-8.25 7.87a.5.5 0 0 1 -.3.1z" fill="#ecbdbb"/><path d="m323.38 434.46h-.15a.5.5 0 0 1 -.33-.63l24-77.33 27.69-62.89a.5.5 0 1 1 .92.4l-27.67 62.83-24 77.28a.5.5 0 0 1 -.46.34z" fill="#ecbdbb"/><path d="m451.33 220.33a7.89 7.89 0 0 1 -4.46 3.8c-11.61 4.25-18.87-11.75-24.87-25.89-2.69-6.33-5.76-12.52-8.67-18.7-3.58-7.62-6.94-15.24-9.07-23.17-3.88-14.37 10.24-20.25 15.62-16.25a158.82 158.82 0 0 1 21.75 37.88c6.95 17.7 13.83 34.49 9.7 42.33z" fill="#9ab3da"/><path d="m451.33 220.33a7.89 7.89 0 0 1 -4.46 3.8c-11.61 4.25-18.87-11.75-24.87-25.89-2.69-6.33-5.76-12.52-8.67-18.7 3.14 0 5.22.08 5.22.08s20.18 24.38 32.78 40.71z" fill="#404b7c"/><path d="m311.38 160.75-8.5-8.12-1-8.62s-20.12-20.06-21.56-20.75-2.56 1-1.31 2.69 9.31 12.13 9.31 12.13l-4.44 11.5s5.06 6.44 7.06 7.69 6.31 1.38 6.31 1.38l9.13 11.06z" fill="#ecbdbb"/><path d="m286.13 135.88c-3.32.3-2.37 4.33-2.37 4.33a3.66 3.66 0 0 0 -1.62 4.38 2.93 2.93 0 0 0 -1.42 3.38c.46 2.54 4.5 6.13 6.92 6s2.33-3.12 2.33-3.12 2.38-.46 2.13-4.08a3.25 3.25 0 0 0 1.75-3.54c-.43-2.65-5.85-7.52-7.72-7.35z" fill="#ecbdbb"/><path d="m288.51 154.19a.5.5 0 0 1 -.22-1c1.2-.58 1.16-2.42 1.16-2.44a.5.5 0 0 1 .41-.5c.07 0 1.94-.45 1.72-3.56a.5.5 0 0 1 .3-.49 2.75 2.75 0 0 0 1.46-3c-.3-1.86-3.71-5.3-6-6.51a.5.5 0 0 1 .46-.89c2.31 1.2 6.17 4.85 6.55 7.24a3.76 3.76 0 0 1 -1.75 3.96c.08 2.83-1.42 3.83-2.15 4.15a3.53 3.53 0 0 1 -1.71 3 .49.49 0 0 1 -.23.04z" fill="#404b7c"/><path d="m288.67 150.71a.49.49 0 0 1 -.19 0 13 13 0 0 1 -5.91-4.92.5.5 0 0 1 .86-.5 12.24 12.24 0 0 0 5.43 4.5.5.5 0 0 1 -.19.92z" fill="#404b7c"/><path d="m290.83 146.88a.5.5 0 0 1 -.23-.05 20.07 20.07 0 0 1 -6.55-5.61.5.5 0 0 1 .81-.58 19.43 19.43 0 0 0 6.2 5.3.5.5 0 0 1 -.23.94z" fill="#404b7c"/><path d="m289.17 144.33c-.24-.38 8-5 8.83-5.33s4.83 4.58 5.17 5.17-.29 8.46-.29 8.46-3.29 1.88-6.12 0-.33-7.21-.33-7.21-5.05 2.5-7.26-1.09z" fill="#ecbdbb"/><path d="m296 152.36a.5.5 0 0 1 -.42-.22c-1.16-1.73-.54-4.35 0-5.82-2.08.68-5.17.89-6.79-1.72a.59.59 0 0 1 -.06-.43c.23-.85 6.68-4.37 7.42-4.77a.5.5 0 0 1 .48.88 73.17 73.17 0 0 0 -6.78 4.08c2 2.72 6.22.7 6.41.61a.5.5 0 0 1 .67.66s-1.82 4-.48 6a.5.5 0 0 1 -.14.69.5.5 0 0 1 -.31.04z" fill="#404b7c"/><path d="m302.63 176.63-5.63-6.63 10.29-15 5.63 6z" fill="#fff"/><path d="m368.38 166.79a215.79 215.79 0 0 1 -22.85 31.54c-5.7 6.53-10.4 11-12 11-3.67 0-33.84-31-33.84-31l12.75-19.84 18.67 18.17s12.8-27.8 20.25-34.25c5-4.34 12.63-2.36 16.95 3.31 3.69 4.85 4.99 12.44.07 21.07z" fill="#9ab3da"/><path d="m368.38 166.79a215.79 215.79 0 0 1 -22.85 31.54c2.89-13.38 6.4-27.63 6.47-28 4.6-20.78 10.31-26.11 16.33-24.69 3.67 4.93 4.97 12.52.05 21.15z" fill="#404b7c"/><circle cx="307.94" cy="178.67" fill="#404b7c" r="2.13"/><path d="m330.37 195.63a.5.5 0 0 1 -.49-.4c-1.38-6.64.46-16.76.54-17.19a.5.5 0 1 1 1 .18c0 .1-1.88 10.36-.54 16.81a.5.5 0 0 1 -.39.59h-.1z" fill="#404b7c"/><path d="m424.38 210.13c-.5-5-4.5-70-4.5-70s-24.75-12.5-39.25-10.5-29.25 12.75-29.25 12.75c-5 27.5 4.75 54.5 3 68.5s-14.75 45.5-14.75 45.5a72.1 72.1 0 0 0 38.57 14.62c2.86-4.81 13-21.36 13-21.36l15.64 18.25a106.7 106.7 0 0 0 32-15s-13.96-37.76-14.46-42.76z" fill="#9ab3da"/><path d="m352.45 187.83a.5.5 0 0 1 -.49-.43c-1.55-10.77-3.91-27-1.42-43a.5.5 0 1 1 1 .15c-2.27 14.62-.62 28.55 1.42 42.72a.5.5 0 0 1 -.42.57h-.07z" fill="#404b7c"/><path d="m423.92 204.45a.5.5 0 0 1 -.5-.47c-.94-13.79-2.91-45.48-3.71-58.46a.5.5 0 0 1 .47-.53.49.49 0 0 1 .53.47c.8 13 2.77 44.66 3.71 58.45a.5.5 0 0 1 -.46.53z" fill="#404b7c"/><path d="m356.88 232.13-1.92 6.75 19.08 5 2-6.84z" fill="#404b7c"/><path d="m419.92 230.28 2.32 6.62-18.74 6.15-2.41-6.7z" fill="#404b7c"/><path d="m390.13 249a.5.5 0 0 1 -.36-.15l-5-5.19a.5.5 0 0 1 -.13-.44c0-.19 3.5-19.77 3.74-51.35a.5.5 0 0 1 .5-.5.5.5 0 0 1 .5.5c-.23 29.74-3.31 48.87-3.71 51.27l4.82 5a.5.5 0 0 1 -.36.86z" fill="#404b7c"/><path d="m381.88 126.5s-6.37 1.25-17.37 7.25a56.84 56.84 0 0 0 -8.51 17.54l12.5 2.5-5.67 11 26 25.83 19.38-27.62-7-12.83 12.17-2.33s-5.83-12.37-9-15.54-17.5-6.47-22.5-5.8z" fill="#404b7c"/><path d="m381.63 129.81c-3.65.73-11.08 4-14.82 5.75 2 7.42 10.85 36.12 21.74 49.9 0 0 8.53-34.9 12.19-52.37-4.82-1.34-15.31-4.04-19.11-3.28z" fill="#fff"/><path d="m392.74 168c-.77-5.19-3-18.94-6.2-28.24l-3.73-.79-2.6 1.63a175.24 175.24 0 0 0 -1.65 27.52c3 6.53 6.37 12.75 10 17.31-.02.03 1.83-7.55 4.18-17.43z" fill="#404b7c"/><path d="m380.87 147.63a.5.5 0 0 1 0-1 51.83 51.83 0 0 1 6.14-.25.5.5 0 0 1 .47.53.49.49 0 0 1 -.53.47 52.45 52.45 0 0 0 -6 .25z" fill="#9ab3da"/><path d="m383.67 140.46a41.14 41.14 0 0 0 -10 7.33s-1.17-17.83 8.25-19.58 12 17.08 12 17.08-2.42-2.5-10.25-4.83z" fill="#fff"/><path d="m373.67 148.29a.5.5 0 0 1 -.5-.47c0-.38-.57-9.39 2.6-15.28a.5.5 0 1 1 .88.47c-2.4 4.47-2.56 11.05-2.52 13.64a40.61 40.61 0 0 1 9.32-6.65.49.49 0 0 1 .36 0 33.22 33.22 0 0 1 9.4 4.11c-.51-2.7-2-9.08-5-12.76a.5.5 0 1 1 .77-.64c4.11 5 5.41 14.14 5.46 14.53a.5.5 0 0 1 -.85.42s-2.43-2.41-9.85-4.65a41.79 41.79 0 0 0 -9.7 7.15.5.5 0 0 1 -.37.13z" fill="#9ab3da"/><rect fill="#ecbdbb" height="42.92" rx="1.83" transform="matrix(.96121357 .27580512 -.27580512 .96121357 65.63 -99.52)" width="7.39" x="383.03" y="162.18"/><path d="m419.52 172.63-7.52 26.07-3.34 11.65a1.84 1.84 0 0 1 -2.27 1.26l-7.39-2.14-18-5.18a1.82 1.82 0 0 1 -1.25-2.26l10.82-37.73a1.84 1.84 0 0 1 2.27-1.26l25.49 7.31a1.85 1.85 0 0 1 1.19 2.28z" fill="#f68d88"/><path d="m412 198.7-3.34 11.65a1.84 1.84 0 0 1 -2.27 1.26l-7.39-2.14-4.21-11.85z" fill="#404b7c"/><circle cx="401.18" cy="181.8" fill="#9ab3da" r="3.63" transform="matrix(.27580512 -.96121357 .96121357 .27580512 115.8 517.29)"/><path d="m406.75 192.63-6.81-2.56s-2.56-13-3.25-15.25-2.94-.81-3.12 1.13-.5 7-.5 7l-9.07-4.57c-1.25-.62-2.87.88-2.37 3.06 0 0-2.19.56-1.62 4a3.34 3.34 0 0 0 -1.06 4.13s-1.94 1.69-.31 4.81c0 0 8.06 5.38 10.75 6.38s6.94 0 6.94 0 8.81 4.44 8.81 4.25 1.61-12.38 1.61-12.38z" fill="#ecbdbb"/><path d="m388.92 185.79a.5.5 0 0 1 -.23-.06l-5.83-3a.5.5 0 0 1 .46-.89l5.83 3a.5.5 0 0 1 -.23.95z" fill="#404b7c"/><path d="m387.33 189.42a.49.49 0 0 1 -.23-.06l-5.67-2.92a.5.5 0 1 1 .46-.89l5.67 2.92a.5.5 0 0 1 -.23.95z" fill="#404b7c"/><path d="m385.88 193.58a.5.5 0 0 1 -.25-.07l-5.27-3.1a.5.5 0 1 1 .51-.86l5.27 3.1a.5.5 0 0 1 -.26.93z" fill="#404b7c"/><path d="m413.75 193.19-7.25-2.69a101.79 101.79 0 0 0 -4.5 17.5s10.38 4.38 10.31 4.13 1.44-18.94 1.44-18.94z" fill="#fff"/><path d="m412.5 191c.11-.36 25.25 9 33.25 14.25s10.63 22-4.25 21.5-34.5-12.87-34.5-12.87 1.13-8.25 5.5-22.88z" fill="#9ab3da"/><path d="m425.68 223.59a.5.5 0 0 1 -.18 0 118.39 118.39 0 0 1 -18.77-9.26.5.5 0 0 1 -.23-.49c0-.08 1.18-8.46 5.52-23a.53.53 0 0 1 .32-.33c1-.34 26.27 9.44 33.69 14.31a.5.5 0 1 1 -.55.84c-7.43-4.88-29.41-13.17-32.62-14.1a177.34 177.34 0 0 0 -5.31 22.05 117.78 117.78 0 0 0 18.31 9 .5.5 0 0 1 -.18.98z" fill="#404b7c"/><circle cx="413.69" cy="211.38" fill="#404b7c" r="2.13"/><path d="m385.35 135.32a7.23 7.23 0 0 1 -6.37.5l-1.27-9-1.4-9.91 8.9-7.64.08-.07v5.72z" fill="#ecbdbb"/><path d="m385.3 114.89c-.41 4-2 9.6-7.59 11.9l-1.4-9.91 8.9-7.64c0 .21.06.39.08.55a7.32 7.32 0 0 1 .06.82 22.53 22.53 0 0 1 -.05 4.28z" fill="#404b7c"/><path d="m366.38 107.75s-2.75-2.44-4.75-.37 1.5 7.88 6.88 7.25z" fill="#ecbdbb"/><path d="m366.88 112.38a.5.5 0 0 1 -.4-.2 6.49 6.49 0 0 0 -3.52-2.68.5.5 0 0 1 .16-1c.08 0 2.1.35 4.15 3.07a.5.5 0 0 1 -.39.81z" fill="#404b7c"/><path d="m371.29 92.63c-7.87.9-7.58 12.5-5.08 20.58s10.42 12.08 16.17 4.42 5-26.84-11.09-25z" fill="#ecbdbb"/><path d="m385.36 118.74-.06-9.58-2.17-.23.25-5.93s-6.13 1.37-5.06-6.19c0 0-6.25 10-14 10.62s-14.76-7.43-13.81-10.25 4.9-.5 5.22-.32c-.46-.48-9.38-9.67-5.54-16.43 3.94-6.93 19.06 2 27.88 7.5 1.35.84 2.66 1.61 3.91 2.33-1-1.67-2.44-4.36-3.73-7.2-2.12-4.69 5.5-4.32 6.94 8.94 0 0 4.19-7.82 7.56-6.44 2.84 1.15-1.12 5.79-5.12 7.91 4 2.37 6.83 4.47 7.5 7.53 1.11 5.13-9.77 17.74-9.77 17.74z" fill="#404b7c"/><path d="m384.25 105.92a4.31 4.31 0 0 1 4.63-3.33c3.92.21 3.17 9-4.75 8.67z" fill="#ecbdbb"/><path d="m385.29 109.25h-.1a.5.5 0 0 1 -.4-.59c0-.15.77-3.79 4.21-4.6a.5.5 0 0 1 .23 1c-2.82.67-3.45 3.79-3.46 3.82a.5.5 0 0 1 -.48.37z" fill="#404b7c"/><path d="m388.25 108.54a.5.5 0 0 1 -.49-.41 3.31 3.31 0 0 0 -1.25-1.85.5.5 0 1 1 .59-.81 4.27 4.27 0 0 1 1.65 2.47.5.5 0 0 1 -.4.58h-.09z" fill="#404b7c"/><path d="m378.87 103.86s-2-2.8-4.16-1.24a.77.77 0 0 0 -.79-.6c-.61.09-.35 2-.35 2a13.32 13.32 0 0 1 5.3-.16z" fill="#404b7c"/><path d="m365 105.92s.53-3.12 2.25-2.05a.72.72 0 0 1 .51-.6c.69 0 .63 1.78.63 1.78a5.61 5.61 0 0 0 -3.39.87z" fill="#404b7c"/><ellipse cx="376.1" cy="108.63" fill="#404b7c" rx="1.3" ry="1.61" transform="matrix(.98009831 -.19851271 .19851271 .98009831 -14.08 76.84)"/><circle cx="375.71" cy="108.13" fill="#fff" r=".35" transform="matrix(.98009831 -.19851271 .19851271 .98009831 -13.99 76.75)"/><ellipse cx="368.59" cy="110.15" fill="#404b7c" rx="1.3" ry="1.61" transform="matrix(.98009831 -.19851271 .19851271 .98009831 -14.53 75.38)"/><circle cx="368.2" cy="109.65" fill="#fff" r=".35" transform="matrix(.98009831 -.19851271 .19851271 .98009831 -14.44 75.29)"/><path d="m372.24 115.91a1.72 1.72 0 0 1 -1.62-.9c-.61-1.14.41-2.17 1-2.56a.5.5 0 0 1 .53.85s-1 .63-.68 1.23c.41.76 1.7.15 1.71.14a.5.5 0 0 1 .43.9 3.4 3.4 0 0 1 -1.37.34z" fill="#404b7c"/><path d="m376.21 112.77a4.11 4.11 0 1 1 1.76-.4 4.1 4.1 0 0 1 -1.76.4zm0-7.21a3.1 3.1 0 1 0 2.81 1.77 3.09 3.09 0 0 0 -2.82-1.77z" fill="#404b7c"/><path d="m367.44 114.3a4.1 4.1 0 1 1 1.75-.4 4.11 4.11 0 0 1 -1.75.4zm0-7.21a3.11 3.11 0 1 0 1 .18 3.09 3.09 0 0 0 -1.01-.18z" fill="#404b7c"/><path d="m373.46 118.28a3.24 3.24 0 0 1 -.42 0 .5.5 0 0 1 -.43-.56.49.49 0 0 1 .56-.43c.11 0 2.79.32 4.74-2.73a.5.5 0 0 1 .84.54 6.28 6.28 0 0 1 -5.29 3.18z" fill="#404b7c"/><path d="m369.94 30.28v16.43a4.9 4.9 0 0 1 -4.9 4.91h-10.15v10.64l-10.63-10.63h-26a4.91 4.91 0 0 1 -4.91-4.91v-16.44a4.91 4.91 0 0 1 4.91-4.91h46.74a4.9 4.9 0 0 1 4.94 4.91z" fill="#e9f3ff"/><rect fill="#9ab3da" height="3.63" rx="1.19" width="18.13" x="321.63" y="31.75"/><rect fill="#9ab3da" height="3.63" rx="1.19" width="31" x="321.63" y="39.63"/><path d="m396.38 68.62v16.38a4.9 4.9 0 0 0 4.9 4.91h10.15v10.63l10.63-10.54h26a4.91 4.91 0 0 0 4.88-5v-16.38a4.91 4.91 0 0 0 -4.94-4.91h-46.72a4.9 4.9 0 0 0 -4.9 4.91z" fill="#9ab3da"/><circle cx="407.87" cy="76.85" fill="#e9f3ff" r="3.5"/><circle cx="424.66" cy="76.85" fill="#e9f3ff" r="3.5"/><circle cx="441.44" cy="76.85" fill="#e9f3ff" r="3.5"/></svg>