<svg enable-background="new 0 0 1600 1200" viewBox="0 0 1600 1200" xmlns="http://www.w3.org/2000/svg"><g fill="#e8e8e8"><path d="m1256.6 884.3c-18.7-19.3-33-42.4-41.8-67.8-.3.6-.7 1.2-1 1.8 2.3-.5 4.5-.9 6.8-1.4 1.3-.3 1.5-2.1.4-2.7-8.6-4.6-9.6-19.4-11.5-27.9-2.5-11.1-4.8-22.2-6.8-33.3-4.2-22.8-7.4-45.8-9.7-68.9-.8.4-1.5.9-2.3 1.3 16.7 9.9 32.6 21 47.5 33.5 13.4 11.3 26.8 23.4 36.3 38.2 10.2 15.7 15.1 34.7 18.1 52.9 3.4 20.1 3.4 40.6-1.4 60.5-.5 1.9 2.4 2.7 2.9.8 7.5-30.3 3.7-62.6-5.9-92-9.3-28.1-30.3-48.4-52.8-66.6-13.6-11-28.1-21-43.1-29.9-.9-.5-2.4.1-2.3 1.3 2.4 24.7 5.9 49.2 10.5 73.5 2.3 12.1 4.8 24.2 7.7 36.1 1.9 8.1 3.2 18.7 11.3 23.1.1-.9.2-1.8.4-2.7-2.3.5-4.5.9-6.8 1.4-.8.2-1.3 1.1-1 1.8 9 25.9 23.5 49.4 42.6 69.1 1.2 1.4 3.3-.7 1.9-2.1z"/><path d="m1193.3 686.6c36.2 52.4 61.2 112 73.2 174.5.4 1.9 3.3 1.1 2.9-.8-12.1-62.8-37.2-122.7-73.6-175.3-1-1.5-3.6 0-2.5 1.6z"/><path d="m1205.3 772.8c15.1 3.3 31 7 41.5 19.3 1.2 1.5 3.4-.7 2.1-2.1-10.8-12.7-27.2-16.7-42.8-20.1-1.9-.4-2.7 2.5-.8 2.9z"/><path d="m1245.1 773c-1.1-14 1.1-27.9 6.7-40.8.8-1.8-1.8-3.3-2.6-1.5-5.8 13.4-8.3 27.7-7.1 42.3.2 1.9 3.2 1.9 3 0z"/><path d="m1269.2 745.5c7.2-44.8 37.9-79.6 67.3-112.1-.8-.5-1.7-1-2.5-1.5-6.9 24.7 9.3 47.6 15.2 70.8 3.2 12.8 4.7 26 5 39.2.2 6.5.1 13.1-.1 19.6-.1 3.2-.1 6.5-.8 9.6-1 4.3-5.8 11-10.9 6.5-.6.8-1.2 1.6-1.8 2.4 8.8 4.6 5.6 17.8 4.2 25.5-1.8 10.4-4.8 20.3-11.5 28.7-9.7 12-23.6 20.9-28.2 36.3-.6 1.9 2.3 2.6 2.9.8 5.7-18.8 25.8-27.8 34.1-45.2 4.3-9 6.2-19.6 7.1-29.4.7-7.1 0-15.6-7.1-19.2-1.4-.7-3.2 1.2-1.8 2.4 3.1 2.8 7.4 2.8 10.9.5 3.9-2.6 5.1-7.4 5.5-11.9 1.6-15.1.9-31-.9-46s-5.8-29.1-11.4-43c-5.9-14.8-12-30.5-7.5-46.6.4-1.4-1.5-2.6-2.5-1.5-29.7 32.9-60.8 68.2-68.1 113.4-.3 1.8 2.6 2.6 2.9.7z"/><path d="m1330.6 642.1c-20.8 51.3-33.7 105.5-38.3 160.7-.2 1.9 2.8 1.9 3 0 4.6-54.9 17.5-108.8 38.2-159.9.7-1.7-2.2-2.5-2.9-.8z"/><path d="m1044.8 799.2c24.5 5.3 48.4-6.5 72-11.2 26-5.1 52.8-5.1 78.9-.4 1.9.3 2.7-2.5.8-2.9-24.2-4.4-48.9-4.7-73.1-.9-12.4 2-24.4 5.4-36.4 8.8-13.5 3.7-27.4 6.7-41.3 3.7-2-.4-2.8 2.4-.9 2.9z"/><path d="m1351 790c14.2-2.7 28.2.7 41.9 4.1 13.4 3.2 26.9 6.1 40.6 8.5 26.4 4.6 53.2 7.3 80 8.4 1.9.1 1.9-2.9 0-3-28.5-1.1-56.8-4.2-84.9-9.3-13.6-2.5-27-5.6-40.4-8.8-12.5-3-25.2-5.2-38-2.7-1.8.3-1 3.2.8 2.8z"/><path d="m220.7 706.2c35.4-8.2 70.8-17.7 106.7-22.9 35.8-5.1 72.1-5.7 108.2-2.6 69.4 6 136.8 24.2 204.8 38.3 37.5 7.8 75.4 14.2 113.7 16.8 1.9.1 1.9-2.9 0-3-70.2-4.8-138.4-22.7-207-37.3-68.2-14.4-137.6-24.8-207.4-16.8-40.5 4.7-80.1 15.4-119.8 24.6-1.9.4-1.1 3.3.8 2.9z"/><path d="m504.7 686.6c58.7-5.1 116.2-18.9 173.1-33.7 58.2-15.2 116.4-30.6 174.6-46 58.1-15.3 116.1-31 174.4-45.9 29-7.4 58.3-14.1 88.1-16.9 28.7-2.7 57.7-2.3 86.4.4 67 6.2 132.2 24.1 196.9 41.9 1.9.5 2.7-2.4.8-2.9-56.9-15.7-114.1-31.4-172.8-39.2-29.2-3.9-58.8-5.9-88.3-4.7-29 1.1-57.6 5.7-85.9 12.1-28.8 6.6-57.3 14.5-85.9 22.1-29.2 7.7-58.4 15.4-87.6 23.1-59 15.5-118.1 31.1-177.1 46.6-64.7 17-129.8 34.2-196.7 40-1.9.3-1.9 3.3 0 3.1z"/><path d="m343.6 866.4c24.4.9 48.9 1.8 73.3 2.7 23.8.9 47.7 2.3 71.5 2.5 23.2.2 45.6-4.3 68.4-8.4 23.8-4.3 47.9-7.4 72-9.1 26.9-2 53.9-2.3 80.8-1.2 1.9.1 1.9-2.9 0-3-47.2-2-94.5.7-141.1 8.3-23.8 3.9-47.4 9.9-71.5 10.4-23.6.6-47.5-1.2-71.1-2.1-27.4-1-54.8-2-82.2-3-2-.2-2 2.8-.1 2.9z"/><path d="m294.5 997.4c1.5 1.1 3 2.1 4.5 3.2 1.4 1 3-1.2 1.8-2.4-4.6-4.8-9.1-9.5-13.7-14.3-2.1-2.2-4.6-4.2-6.3-6.7-2.6-3.8.1-5.6.7-8.7.7-3.2-2.5-5-4.3-7-4-4.3-6.6-9.7-8.6-15.2-8.3-22.7-11.2-48.3-12-72.3-.5.5-1 1-1.5 1.5 25.2-2.3 39.8 21.5 48.2 41.6 9.4 22.3 18 45.6 19.1 70.1.1 1.9 3.1 1.9 3 0-1.2-26.2-10.6-51.6-21.2-75.4-8.8-19.9-24.7-41.6-49.2-39.4-.8.1-1.5.6-1.5 1.5.5 12.9 1.7 25.7 3.8 38.4 2.1 12.4 4.5 25.2 9.1 36.9 1.7 4.3 3.8 8.4 6.6 12 2 2.5 5.4 4.7 4.2 8.4-.5 1.5-1.5 2.3-1.4 4.1.2 4.4 5 8 7.7 10.8 5 5.2 10.1 10.5 15.1 15.7.6-.8 1.2-1.6 1.8-2.4-1.5-1.1-3-2.1-4.5-3.2-1.5-.9-3 1.7-1.4 2.8z"/><path d="m313.1 929.3c8.7-22.8 24-42.7 43.9-56.8-.7-.2-1.4-.4-2.1-.5 5.6 12.8 9.4 26.2 11.4 40 .3-.6.7-1.2 1-1.8-2.4.7-4.8 1.4-7.3 2.1-1 .3-1.3 1.3-.9 2.2 2.8 6.7 5.9 14.3 2.8 21.4-2.6 5.9-8.2 10.3-12.1 15.2-7.1 8.8-12.6 18.6-16.8 29-.7 1.8 2.2 2.6 2.9.8 5.6-14.1 14-25.3 23.9-36.6 3.6-4.1 6.3-8.6 6.5-14.2.2-6-2.3-11.7-4.6-17.1-.3.7-.6 1.5-.9 2.2 2.4-.7 4.8-1.4 7.3-2.1.8-.2 1.2-1 1-1.8-2.1-14.1-6-27.7-11.7-40.8-.3-.7-1.4-1-2.1-.5-20.6 14.7-36.3 35-45.3 58.6-.4 1.7 2.4 2.5 3.1.7z"/><path d="m265.5 890.2c25.5 29.3 42.1 65.8 47.2 104.3.3 1.9 3.3 1.9 3 0-5.3-39.4-22-76.5-48.1-106.5-1.3-1.4-3.4.7-2.1 2.2z"/><path d="m326.7 960.9c4.7-16.6 11.3-32.5 19.8-47.6.9-1.7-1.6-3.2-2.6-1.5-8.6 15.3-15.3 31.5-20.1 48.3-.6 1.9 2.3 2.7 2.9.8z"/><path d="m266.5 835.7c35-6.8 70.8-9.4 106-2.7 16.4 3.1 32.6 6.7 49.2 8.6 17.5 2 35.2 2.8 52.8 3.5 1.9.1 1.9-2.9 0-3-17.6-.8-35.3-1.5-52.8-3.5-18.2-2.1-36-6.4-54.1-9.5-33.8-5.8-68.5-2.7-101.9 3.8-1.9.3-1.1 3.2.8 2.8z"/><path d="m398.4 954.6c20-3.2 40-6.5 60.2-7.7 20.5-1.2 40.3.5 60.4 4.2 18.4 3.4 36.2 5 55 4.6 19.5-.5 39.2-1.4 58.2 3.7 1.9.5 2.7-2.4.8-2.9-18.4-5-37.3-4.4-56.2-3.9-10 .3-20.1.4-30.1-.4-10.3-.8-20.5-2.9-30.6-4.7-19.4-3.5-38.7-4.8-58.5-3.6-20.1 1.3-40.1 4.5-60 7.7-1.9.4-1.1 3.3.8 3z"/><path d="m948.1 978.5c37.5-5.4 75.2-8.6 113.1-9.4 36.9-.8 73.8.7 110.7 1.5 1.9 0 1.9-3 0-3-37.5-.8-75.1-2.3-112.7-1.4-37.5.9-74.8 4.1-111.9 9.4-1.9.3-1.1 3.1.8 2.9z"/><path d="m1114.3 1000c14.3-6.1 29.7 1.3 44.4.6 3.1-.2 6.3-.6 9.3-1.6 4.1-1.4 7.9-3.6 12.3-3.8 7.6-.4 14.7 2.5 22.3 1.3 1.9-.3 1.1-3.2-.8-2.9-8.5 1.4-16.8-2.8-25.2-.9-3.8.8-7.2 2.8-10.9 3.9-3.8 1-7.7 1.2-11.6 1.1-13.9-.6-27.8-5.9-41.4-.1-1.6.5-.1 3.1 1.6 2.4z"/><path d="m1316.6 889.5c25.2-7.5 50.4-7.3 76.2-4.2 24.3 2.9 48.8 6.7 73.2 2.4 1.9-.3 1.1-3.2-.8-2.9-25.4 4.5-50.9-.1-76.2-2.9-24.9-2.8-49.2-2.5-73.3 4.8-1.7.5-1 3.4.9 2.8z"/><path d="m1216.1 317.7c-18.6-10-30.7-29.4-27.9-50.9 2.5-19.7 18.3-36.7 37.6-41.3 19.7-4.6 41.7 4.7 52.4 21.8 11.5 18.3 9 42.5-5.1 58.7-16 18.4-44 21.2-64.2 8.2-1.6-1.1-3.1 1.5-1.5 2.6 18.8 12.2 44.8 11.4 62.2-3.1 17.3-14.4 23.7-39.4 15.1-60.3-8.2-19.9-29.2-32.9-50.7-32-21.2 1-40.4 16.3-46.8 36.4-8 24.9 5.4 50.5 27.5 62.4 1.6 1 3.1-1.6 1.4-2.5z"/><path d="m353 536.4c10.2-9.1 24.5-2.9 32.1 6.3 3.9 4.7 6.2 10 9.2 15.2 1.9 3.5 4.7 7 8.9 7.8 3.3.6 6-.6 8.2-3 1.4-1.6 2.3-3.7 3.7-5.3 3-3.5 6.9-3.1 10.1-.3 7 6.1 7.3 21.2 19.6 20.1 1.9-.2 1.9-3.2 0-3-12.8 1.2-11.3-20.3-23.6-22.4-3.6-.6-6.5 1-8.7 3.8-1.4 1.8-2.3 4.3-4.1 5.8-5.2 4.3-9.8-1.7-11.9-5.8-5.1-9.4-10.1-19.2-20.2-24.1-8.3-4-18.4-3.6-25.4 2.7-1.4 1.3.7 3.5 2.1 2.2z"/><path d="m1026.1 401.8c-2-5.4-4.4-11.8-.8-17.1 3.3-4.7 8.9-2.3 13.6-3.8 6.2-2 10-8.1 11.7-14 2-6.9-.4-15.9 3.7-22 5-7.5 15.8 1.7 22.6-2.9 1.6-1.1.1-3.7-1.5-2.6-6.9 4.7-16.3-4.9-22.8 2.8-5.2 6.1-2.8 15.4-4.5 22.6-1.2 5-3.9 10.3-8.6 12.7-4.1 2.1-8.8 0-12.9 2.1-8.8 4.5-6 15.7-3.3 23 .5 1.7 3.4 1 2.8-.8z"/><path d="m1036.9 331.7c-1.9-5-.8-10.7 2.9-14.7 4.6-5 9.9-3 15.6-5 3.4-1.2 5.4-4.1 6.7-7.3.8-2 1.3-4.1 2-6.1.6-1.6 1.3-3.4 2.5-4.6 1.8-1.7 6.1-3.1 7.2.7.6 1.8 3.4 1.1 2.9-.8-1.3-4.2-6.2-5.7-10-3.7-7.2 3.7-4.6 14.7-11.3 18.4-3.7 2-8.3.8-12.2 2.4-2.5 1.1-4.7 2.9-6.4 5-3.7 4.7-4.9 10.9-2.8 16.5.6 1.8 3.5 1 2.9-.8z"/><path d="m1121.1 438.5c-3-4.3-2.1-10.4 1.8-14 4.5-4.2 11-2.3 14.1 2.5 7.1 10.7-8.6 20.1-16.1 11.2-1.3-1.5-3.4.7-2.1 2.1 4.3 5.1 12.3 5.7 17.8 2.1 6.2-4 6.7-12.1 2.4-17.8-4.2-5.6-12-7.5-17.6-2.9-5.3 4.3-6.9 12.5-2.9 18.2 1.1 1.7 3.7.2 2.6-1.4z"/><path d="m1132.4 455.1c-2.8-3.9-6.3-8.6-5.1-13.6 1.8-7.4 10.6-5.5 14.6-1.1 3.3 3.7 4.5 9.5.3 13-3.2 2.7-8.1 3.2-11 0-1.3-1.4-3.4.7-2.1 2.1 4 4.3 10.8 3.9 15.1.2 5.1-4.4 4.5-11.7.5-16.6-4-5-13.1-8.6-18.1-2.9-5.6 6.4-.9 14.7 3.2 20.4 1.1 1.6 3.7.1 2.6-1.5z"/><path d="m459.9 663.5c11.2 3.4 22.6 5.4 34.2 5.8 1.9.1 1.9-2.9 0-3-11.4-.4-22.6-2.3-33.4-5.7-1.9-.6-2.7 2.3-.8 2.9z"/><path d="m1209.9 583.5c68-.5 132 24.9 196.2 43.7 18.4 5.4 37 10.3 55.8 14 1.9.4 2.7-2.5.8-2.9-66.7-13.2-129.6-41.5-196.7-53-18.5-3.2-37.3-5-56.1-4.8-1.9 0-1.9 3 0 3z"/><path d="m541.4 149.9c3.5 8.4 7.8 27 20.4 18.7 4.2-2.7 10.4-10.6 14.9-4.2 2.7 3.8 2.9 8.8 8 10.5 1.8.6 2.6-2.3.8-2.9-4.7-1.6-4.7-8.8-8.5-11.7-2.5-1.9-5.6-1.8-8.3-.4-4 1.9-6.9 6.2-11.1 7.6-7.5 2.5-11.3-13.6-13.3-18.4-.8-1.7-3.7-1-2.9.8z"/><path d="m572.5 151.7c5.6-4.3 13.8-2.3 16.6 4.2 1.7 4.1 3 6.5 7.8 6.8 2.3.1 4.8-.7 7.1-.3 4.8.8 4.8 5 5.6 8.9s2.6 7.3 6.8 7.8c1.9.2 1.9-2.8 0-3-5.5-.6-3.2-11.9-7.5-15.1-4.6-3.4-11.5 1.1-15.1-3.1-1.7-2-2.2-4.7-4-6.7-1.4-1.7-3.3-2.9-5.4-3.7-4.5-1.8-9.5-1.2-13.3 1.7-1.7 1.1-.2 3.7 1.4 2.5z"/><path d="m662.5 246c6.3 1.3 13-2.7 14.7-9.1 1.6-6-2.3-11.7-8-13.6-13.3-4.5-20.7 13.8-9.9 21.3 1.6 1.1 3.1-1.5 1.5-2.6-7.6-5.3-2.9-18.6 6.8-16.1 4.2 1.1 7.7 4.9 6.9 9.4-.9 5.1-6.1 8.8-11.2 7.7-1.9-.3-2.7 2.6-.8 3z"/><path d="m672.2 251.1c-2.4-1.9-5.3-4-6.3-7.1-1.4-4.2 2.6-9.2 7.3-8 3.3.9 5.6 4.7 4.8 8.1-1 3.8-5.3 5.7-8.9 4.8-1.9-.5-2.7 2.4-.8 2.9 4.9 1.2 10.3-1.1 12.3-5.9 1.9-4.7-.7-10.4-5.3-12.4-4.6-1.9-9.9.6-11.9 5-2.8 6.1 2.3 11.2 6.8 14.7 1.3 1.2 3.5-.9 2-2.1z"/><path d="m472.7 448.6c-4.6-4.1-5.5-10.3-1-14.9 3.9-3.9 9.7-3.8 13.4.3 7.7 8.6-3.4 19.8-12.5 13.9-1.6-1.1-3.1 1.5-1.5 2.6 5.4 3.5 12.8 2.3 17-2.5 4.3-5 3-12.5-1.6-16.9-4.9-4.6-12.2-4.3-16.9.4-5.7 5.7-4.8 14 1 19.2 1.4 1.3 3.5-.8 2.1-2.1z"/><path d="m899 165.9c5.8-12.7 13.9-24 23.9-33.7 1.4-1.3-.7-3.5-2.1-2.1-10.2 9.9-18.4 21.4-24.4 34.4-.8 1.6 1.8 3.2 2.6 1.4z"/><path d="m911.5 163.9c6-7.4 12.7-14.3 19.9-20.6 1.5-1.3-.7-3.4-2.1-2.1-7.2 6.3-13.8 13.2-19.9 20.6-1.2 1.5.9 3.6 2.1 2.1z"/><path d="m919.1 172.9c2.7-2.3 5.4-4.5 8.1-6.8 1.5-1.2-.7-3.4-2.1-2.1-2.7 2.3-5.4 4.5-8.1 6.8-1.5 1.2.6 3.3 2.1 2.1z"/></g><circle cx="1060.6" cy="167.1" fill="#5222d0" r="14.6"/><circle cx="1053.9" cy="195.7" fill="#5222d0" r="8.7"/><circle cx="593" cy="581.6" fill="#5222d0" r="10.7"/><circle cx="610.4" cy="615.7" fill="#5222d0" r="5.9"/><path d="m714.6 460.1c.9 8.7 3.7 16.4 13.6 16.2 3.4 0 6.3-1 8.9 1.6 2.4 2.4 1.7 4.8 2.7 7.8.5 1.5 1.2 2.9 2.6 3.9 1.8 1.3 8.6 1.3 8 4.3-.4 1.9 2.5 2.7 2.9.8.7-3.4-1.6-5.4-4.8-6.3-4.6-1.3-5.7-3.1-6.4-7.2-.3-1.9-.7-3.8-2-5.4-2.6-3.1-6.8-2.7-10.4-2.6-3.9.2-7.6-.1-9.7-3.9-1.6-2.8-2-6.2-2.3-9.3-.3-1.8-3.3-1.8-3.1.1z" fill="#5222d0"/><path d="m724.8 496.9c5.2-5.5 11.4.1 13 5.6.7 2.2.8 4.3 2.4 6 3.6 4 10.2 1.8 13.5 6 1.2 1.5 3.3-.6 2.1-2.1-2.2-2.8-5.3-3.2-8.6-3.9-3.1-.7-4.8-1.8-6-4.9-.8-1.9-.9-3.9-2-5.8-3.4-6.1-11.4-8.5-16.5-3.1-1.4 1.5.7 3.6 2.1 2.2z" fill="#5222d0"/><path d="m1080 486.8c-1.9-3.6 2.1-6.3 5.1-4.1.9.6 2.3-.2 2.3-1.3-.3-3.4 3.1-5.9 6.3-4.7 1.8.7 2.6-2.2.8-2.9-5-1.9-10.5 2.3-10.1 7.6.8-.4 1.5-.9 2.3-1.3-5.7-4.1-12.4 2.2-9.2 8.2.8 1.7 3.4.2 2.5-1.5z" fill="#5222d0"/><path d="m1097 485.2c-.7-1.7 4.1-2 4.9-2 2.5.1 4.9.5 7.4.7 1.9.2 1.9-2.8 0-3-3.9-.4-8.3-1.5-12.1.1-2.5 1.1-3.9 3.1-2.8 5.7.7 1.8 3.3.2 2.6-1.5z" fill="#5222d0"/><circle cx="575.9" cy="593.4" fill="#ec615b" r="11.8"/><circle cx="687.6" cy="147" fill="#ec615b" r="15.9"/><circle cx="399.4" cy="757.5" fill="#ec615b" r="20.1"/><circle cx="1085.5" cy="696.4" fill="#ec615b" r="10.3"/><path d="m970.9 941c21.2-5.1 42.5-10.3 63.7-15.4 13.6 1 33.8 1.3 57.8-2.7 22.8-3.8 66.5-14.5 66.2-26.3-.2-7.8-19.7-13.4-51.9-22.7-21.3-6.1-39.2-9.7-51.1-11.8-13.2 6.5-27.4 12.9-42.7 19-20.7 8.3-40.4 14.8-58.7 19.9 5.5 13.4 11.1 26.7 16.7 40z" fill="#161616" stroke="#161616" stroke-miterlimit="10" stroke-width="3"/><path d="m918.5 920.7c21.2-5.1 42.5-10.3 63.7-15.4 13.6 1 33.8 1.3 57.8-2.7 22.8-3.8 66.5-14.5 66.2-26.3-.2-7.8-19.7-13.4-51.9-22.7-21.3-6.1-39.2-9.7-51.1-11.8-13.2 6.5-27.4 12.9-42.7 19-20.7 8.3-40.4 14.8-58.7 19.9 5.5 13.5 11.1 26.8 16.7 40z" fill="#161616" stroke="#161616" stroke-miterlimit="10" stroke-width="3"/><path d="m809.1 736c-18.9 10.2-35.2 21.5-38 23.4-9.6 6.7-32 22.4-54.2 45.3-32.8 33.8-60.4 62.2-58.6 98.2 1.6 32.4 26.1 54.9 28.8 57.3 43.7 39 137.1 24.8 231.4-35.3-3.4-17.9-6.7-35.7-10.1-53.6 8.4-1.7 27.4-6.8 44.7-23.1 21.5-20.3 26.3-44.9 27.5-52.9-.1-9.1-1.2-19.8-4.3-31.4-9.5-35.6-32.1-58.1-44.1-68.4-31.1 5.4-77.9 16.3-123.1 40.5z" fill="#fff" stroke="#161616" stroke-miterlimit="10" stroke-width="3"/><path d="m880.6 754.7c-19.2 10.4-36.3 22.2-38 23.4-24.8 17.3-42.3 33.9-54.2 45.3-42.5 40.8-72.7 68.5-68.7 102.1 3.9 32.3 36.2 51.8 38.9 53.3 18.9 11 38.1 11.3 53.5 10.5 69.2-3.6 146.8-33.1 177.9-45.8-3.4-17.9-6.7-35.7-10.1-53.6 8.4-2.8 32.2-12.2 47.9-37 2.4-3.8 10.8-17.7 13.1-37.6.7-5.7 1.5-17.7-4.8-42.6-3.9-15.4-10.9-36.9-24-61.3-27.6 4.9-81.5 16.3-131.5 43.3z" fill="#fff" stroke="#161616" stroke-miterlimit="10" stroke-width="3"/><path d="m871.5 909c37.1.9 74.1-4.7 109.2-16.6 1.8-.6 1-3.5-.8-2.9-34.9 11.9-71.5 17.5-108.4 16.5-1.9-.1-1.9 2.9 0 3z" fill="#161616"/><path d="m861.8 898.5c2.5 4.3 6.3 7.7 10.9 9.6 1.8.7 3.3-1.8 1.5-2.6-4.2-1.8-7.5-4.6-9.8-8.5-1-1.7-3.6-.2-2.6 1.5z" fill="#161616"/><path d="m924.8 824.4c-34.8 19.5-52.8 16.3-87.4 43.3-9 7.1-61.6 48.2-54.9 89.9.6 3.5 3.7 23.1 18.3 30.8 6.2 3.3 12.3 3.1 20.8 2.5 28.5-2.2 50.5-7.6 53.2-8.3 35-8.7 29.1-5.1 53.2-11.6 15.9-4.3 37.4-11.1 62.4-21.6-3.3-17.5-6.7-34.9-10-52.4 7.3-3.4 17.3-9.1 27.5-18.3 7.4-6.7 28.5-25.7 33.3-55.7 2.6-16.1-.6-28.4-5.8-48.3-5.3-20.3-12.7-36.1-18.3-46.6-31.2 54.7-66.2 81.8-92.3 96.3z" fill="#3d3d3d" opacity=".12"/><path d="m887.4 738.1c-1.4-2.4-45.4 17.6-95.7 54.1-62.2 45.1-96.7 71.8-98.2 109.8-1.7 44.3 59 81.3 61.6 79 1.4-1.3-35.2-26.6-35.8-63.2-.4-23.9 14.8-42.8 41.6-69.9 68.5-69.3 128.2-106.9 126.5-109.8z" fill="#3d3d3d" opacity=".11"/><path d="m1028.8 759.8c-4.6 18.2-14.1 45.1-34.9 71.6-44.3 56.3-107.2 69.3-125.6 72.4 3.1 3 6.1 6.4 9.2 10 16.6 20 24.8 41.4 29.1 58.2 27.2-9.4 54.4-18.9 81.5-28.3-4.2-16.6-8.3-33.3-12.5-49.9 8.6-3.5 22.6-10.6 35.8-24.1 5.5-5.7 18.8-19.6 25-41.6 9-32.6-3.6-60.4-7.6-68.3z" fill="#3d3d3d" opacity=".12"/><path d="m812.6 469.6c8.4 1.2 12 26.3 13.2 34.6 4.9 33.7-5.5 48.8-7.1 90.1-1.3 32.8 4.7 34.3 2 50.3-4 23.4-22.5 53.4-88.2 80.6-4.9 5.3-13.6 13.6-26.2 18.9-26.5 11.2-61.3 5.4-66-10.7-1.6-5.4-.1-12.9 3.6-16.4 6-5.8 15.2 2.5 30.4-3 .8-.3 7.6-2.8 7.4-4.6-.1-1.1-2.7-1.5-5.8-1.9-14.1-2-18.3-1.6-18.6-2.8-.5-2 10.3-8.9 24.3-12.9 10.8-3.1 25.4-5.8 43.4-4.9 15.7-17.7 31.5-35.4 47.2-53.1-1.5-22.8-1.2-55.3 7.4-92.2 6.3-26.8 21.2-73.7 33-72z" fill="#fff" stroke="#161616" stroke-miterlimit="10" stroke-width="3"/><path d="m813 469.1c-12.3.2-23.4 49.1-25.7 83.8-2.9 43.9 8.6 57.6 0 84.5-5.7 17.8-20.1 40.7-58.8 61.5-30.5 25.5-50.8 28.2-64.2 25-8.2-1.9-18.4-7.2-23-2.7-3.9 3.8-2.1 13.2 2 19.6 9.8 14.9 39.3 11.3 56.1 5.4 15.6-5.5 25.9-15.1 31.8-21.6 13.7-3.7 45.7-14.4 72.3-44.6 25.9-29.4 32-60.7 35.1-77.7 11.9-64.7-10.6-133.5-25.6-133.2z" fill="#3d3d3d" opacity=".12"/><path d="m964.7 411.6c35.6 7.5 62.6 37.6 74.3 65.3 12.9 30.4 5.4 54.2-1.8 104.5-4.9 34.5-10.2 84.2-10.2 146.3-10.8 8.2-61.9 45.6-131.5 36.1-44.2-6-74.4-27.9-87.7-39 2.2-16 4.4-40.8 1.8-70.8-3.8-42.2-14-58.7-15.9-92.1-1.2-21.1.6-52.2 16.8-91.2 9.1-6.2 22-14.4 38.1-23 50-26.7 81.3-43.4 116.1-36.1z" fill="#ec615b"/><path d="m930.1 458.3c9.2 24.6 22.2 70.2 15.3 126.6-11.5 93.7-70.2 151.6-88.4 168.2 14.6 5.8 44.8 15.4 83.3 11 43.5-5 73.3-25.2 85.8-34.8-1.1-41.6 1.4-76.2 4.2-101.9 8.6-77.4 24.1-105.3 7.6-147.8-3.9-10.1-17-43.9-50.1-59.5-8.7-4.1-16.6-5.9-22.1-6.8-2 7.1-6.6 19.8-17.8 31.4-6.2 6.6-12.7 10.8-17.8 13.6z" fill="#3d3d3d" opacity=".14"/><path d="m1041.4 494c-26.3 71.4-52.7 142.7-79 214.1-22.9 18.7-45.9 37.4-68.8 56.1 17.1 1.5 44.3 1.6 75.6-7.6 26-7.7 45.7-19.1 58.6-28-.3-10.6-.5-26.2 0-45 1.4-47.2 2-70.8 8.5-99.4 6-26.4 14.1-46.5 8.5-76.5-1.1-6-2.4-10.7-3.4-13.7z" fill="#3d3d3d" opacity=".21"/><path d="m617.7 700.5c11.9 28.8 23.9 57.6 35.8 86.3 48.4-16.8 96.9-33.7 145.3-50.5-11.6-27.7-23.2-55.5-34.7-83.2-48.8 15.8-97.6 31.6-146.4 47.4z" fill="#fff" stroke="#161616" stroke-miterlimit="10" stroke-width="3"/><path d="m602.1 605.3c16.2 11.8 35.6 28.3 54.7 50.5 15.5 18 27.1 35.5 35.8 50.5 19-29.5 37.9-59 56.9-88.4-22.1-24.6-44.2-49.1-66.3-73.7-27.1 20.4-54.1 40.7-81.1 61.1z" fill="#fff" stroke="#161616" stroke-miterlimit="10" stroke-width="3"/><path d="m514.5 468.1v81.1c20.7-10.2 41.4-20.4 62.1-30.5 13.7-6.7 27.4-13.4 41.1-20-3.9-19.7-7.7-39.3-11.6-59-30.5 9.4-61 18.9-91.6 28.4z" fill="#fff" stroke="#161616" stroke-miterlimit="10" stroke-width="3"/><path d="m454.2 295.7c10.2 24.2 20.4 48.4 30.5 72.6 36.1-20.7 72.3-41.4 108.4-62.1-15.1-28.8-30.2-57.6-45.3-86.3-9.5 11-21 22.9-34.7 34.7-20.9 18.2-41.4 31.4-58.9 41.1z" fill="#fff" stroke="#161616" stroke-miterlimit="10" stroke-width="3"/><path d="m304.7 327.3c-3.2 18.6-6.3 37.2-9.5 55.8 36.8-8.4 73.7-16.8 110.5-25.3-.7-20.4-1.4-40.7-2.1-61.1-32.9 10.2-65.9 20.4-98.9 30.6z" fill="#fff" stroke="#161616" stroke-miterlimit="10" stroke-width="3"/><path d="m618.8 703c34.6 5.1 68.9 11.5 102.9 19.2 1.9.4 2.7-2.5.8-2.9-34.1-7.7-68.4-14.2-102.9-19.2-1.9-.2-2.7 2.7-.8 2.9z" fill="#161616"/><path d="m762.1 654.5c-11.1 23.1-24.6 45-40.3 65.2-1.2 1.5.9 3.6 2.1 2.1 15.9-20.4 29.6-42.5 40.8-65.8.8-1.7-1.8-3.2-2.6-1.5z" fill="#161616"/><path d="m626.9 611.3c16.8-17.8 35.5-33.7 55.9-47.3 1.6-1.1.1-3.7-1.5-2.6-20.6 13.8-39.5 29.8-56.5 47.8-1.4 1.3.8 3.5 2.1 2.1z" fill="#161616"/><path d="m641.4 620.3c12.6-13.9 26.5-26.5 41.5-37.6 1.5-1.1 0-3.7-1.5-2.6-15.3 11.3-29.4 24-42.1 38.1-1.4 1.4.7 3.5 2.1 2.1z" fill="#161616"/><path d="m654 637.1c16.3-18.3 34.2-35.2 53.6-50.3 1.5-1.2-.6-3.3-2.1-2.1-19.3 15.1-37.3 31.9-53.6 50.3-1.3 1.4.9 3.5 2.1 2.1z" fill="#161616"/><path d="m675.4 657.4c5.7-9.2 13.3-17 20.8-24.8 8.2-8.3 16.4-16.7 24.6-25 1.4-1.4-.8-3.5-2.1-2.1-8.6 8.8-17.2 17.5-25.8 26.3-7.4 7.5-14.5 15.2-20.1 24.1-1 1.6 1.6 3.1 2.6 1.5z" fill="#161616"/><path d="m649.5 744.4c1.8 8.2 4.8 15.9 8.9 23.1.9 1.7 3.5.2 2.6-1.5-4-7.1-6.9-14.5-8.6-22.4-.4-1.9-3.3-1.1-2.9.8z" fill="#161616"/><path d="m651.9 746.2c10-6 20.8-9.7 32.3-11.3-.6-.3-1.2-.7-1.8-1 2 6.5 3.9 12.9 5.9 19.4.6 1.8 3.5 1.1 2.9-.8-2-6.5-3.9-12.9-5.9-19.4-.3-.9-1-1.2-1.8-1-11.8 1.6-22.8 5.5-33 11.6-1.8.9-.3 3.5 1.4 2.5z" fill="#161616"/><path d="m660.3 768.7c9.5-3.9 18.8-8.3 28-13 1.7-.9.2-3.5-1.5-2.6-8.9 4.6-18 8.8-27.3 12.7-1.8.8-1 3.7.8 2.9z" fill="#161616"/><path d="m736.8 723.6c11-5.9 22.7-10 34.9-12.5 1.9-.4 1.1-3.3-.8-2.9-12.5 2.5-24.4 6.8-35.6 12.8-1.8.9-.2 3.5 1.5 2.6z" fill="#161616"/><path d="m740.4 732.2c6.7-2.9 13.4-5.8 20-8.7 1.8-.8.2-3.4-1.5-2.6-6.7 2.9-13.4 5.8-20 8.7-1.8.8-.2 3.3 1.5 2.6z" fill="#161616"/><path d="m523.5 478.6c23.8-7.9 47.6-17.5 72.3-22.3 1.9-.4 1.1-3.3-.8-2.9-24.6 4.9-48.5 14.4-72.3 22.3-1.8.6-1 3.5.8 2.9z" fill="#161616"/><path d="m523.1 491.5c22.8-10.5 46.4-19 70.6-25.4 1.9-.5 1.1-3.4-.8-2.9-24.5 6.5-48.3 15.1-71.3 25.7-1.7.8-.2 3.4 1.5 2.6z" fill="#161616"/><path d="m521.3 504.5c10-4.1 19.8-8.5 29.5-13.2 1.7-.8.2-3.4-1.5-2.6-9.5 4.6-19.1 8.9-28.8 12.9-1.7.7-1 3.6.8 2.9z" fill="#161616"/><path d="m526.8 515.3c21.1-10.7 42.7-20.5 64.7-29.2 1.8-.7 1-3.6-.8-2.9-22.3 8.8-44.1 18.7-65.4 29.5-1.8.9-.2 3.5 1.5 2.6z" fill="#161616"/><path d="m466.9 301.9c28.4-13.8 54.8-31.2 78.8-51.6 1.5-1.3-.7-3.4-2.1-2.1-23.8 20.3-50.1 37.4-78.2 51.2-1.8.8-.3 3.4 1.5 2.5z" fill="#161616"/><path d="m473 314.9c11.9-6.9 23.3-14.5 34.3-22.8 1.5-1.1 0-3.8-1.5-2.6-11 8.3-22.4 15.9-34.3 22.8-1.7 1-.2 3.6 1.5 2.6z" fill="#161616"/><path d="m480.6 324c25.6-13.7 50.2-28.9 73.9-45.7 1.6-1.1.1-3.7-1.5-2.6-23.6 16.8-48.3 32-73.9 45.7-1.7.9-.2 3.5 1.5 2.6z" fill="#161616"/><path d="m487 339.5c28.3-12.8 55.3-28.2 80.7-46.2 1.6-1.1.1-3.7-1.5-2.6-25.3 18-52.3 33.4-80.7 46.2-1.8.8-.3 3.3 1.5 2.6z" fill="#161616"/><path d="m626.1 588.7c10.7-2.4 21.4-4.8 32.1-7.2 15.2 32 30.4 64 45.6 95.9 15.2-19.7 30.4-39.3 45.6-59-22.4-24.1-44.8-48.3-67.1-72.4-18.8 14.3-37.5 28.5-56.2 42.7z" fill="#3d3d3d" opacity=".13"/><path d="m547.5 461.1c-5.6 25.7-11.2 51.5-16.8 77.2 28.6-13.7 57.2-27.5 85.9-41.2-4.2-18.2-8.3-36.5-12.5-54.7-18.9 6.3-37.8 12.5-56.6 18.7z" fill="#3d3d3d" opacity=".21"/><path d="m676.5 683.2c5.6 13.6 11.2 27.2 16.8 40.8 9.3 2.1 18.5 4.2 27.8 6.2 10.1 7 20.1 14.1 30.2 21.1 15.3-5.3 30.7-10.6 46-15.8-11.7-26.5-23.3-53.1-35-79.6-15.3 4.6-30.7 9.3-46 13.9-8 12.8-16 25.6-24 38.4-5.3-8.4-10.5-16.7-15.8-25z" fill="#3d3d3d" opacity=".08"/><path d="m323.5 328.5c-4.8 16.7-9.5 33.5-14.3 50.2 31.9-7.4 63.8-14.8 95.7-22.2-1.1-19.2-2.1-38.4-3.2-57.6-26.1 9.9-52.2 19.8-78.2 29.6z" fill="#3d3d3d" opacity=".15"/><path d="m499.5 271.4c3.7 54 6.5 80.9 8.5 80.9.6 0 1.1-2.7 1.6-7.9 26.2-13.2 52.5-26.4 78.7-39.6-13.2-24.7-26.4-49.3-39.6-74-16.5 13.5-32.9 27.1-49.2 40.6z" fill="#3d3d3d" opacity=".11"/><path d="m1016.2 451.9c13.5-1.8 29.9 37.4 36.9 60.8 11.8 39.6 7.6 74.3 3.6 106.5-4.3 34.3-6.4 51.5-14.6 69.5-26.5 58.2-93.1 80.5-119.2 87.7-7.1 5.2-19.8 13.5-37.3 18.9-37.1 11.4-85.8 6.5-92.5-12.6-2.2-6.4-.1-15.2 5-19.3 8.5-6.8 21.2 2.9 42.6-3.6 1.1-.3 10.6-3.3 10.3-5.4-.2-1.3-3.7-1.7-8.1-2.2-19.7-2.3-25.6-1.9-26-3.3-.6-2.4 14.5-10.4 34-15.2 15.2-3.7 35.6-6.9 60.8-5.8 24.6-22.6 49.2-45.3 73.8-67.9-.2-55.2 4.2-100.7 8.7-134.1 9.4-67.8 17.5-73.4 22-74z" fill="#fff" stroke="#161616" stroke-miterlimit="10" stroke-width="3"/><path d="m791.6 781.9c3.8 4.1 10.8 5.3 15.9 6.8 7.5 2.1 15.2 3.7 23 4.7 1.9.3 2.7-2.6.8-2.9-6.5-.9-13-2.1-19.4-3.8-5.5-1.4-14.3-2.6-18.2-7-1.3-1.3-3.4.8-2.1 2.2z" fill="#161616"/><path d="m793.3 772.8c12.5 7.7 26.5 12 41.2 12.7 1.9.1 1.9-2.9 0-3-14.2-.6-27.6-4.8-39.7-12.3-1.6-1-3.2 1.6-1.5 2.6z" fill="#161616"/><path d="m798.6 765.8c14 7.1 29.2 10.8 44.9 10.8 1.9 0 1.9-3 0-3-15.2 0-29.9-3.5-43.4-10.4-1.7-.9-3.2 1.7-1.5 2.6z" fill="#161616"/><path d="m1011 456.3c9 19.6 20.9 51.4 24.4 92.1 2.6 30.5 6.9 82.5-24.4 134.3-30.8 50.9-77.5 71.1-94.8 78.5-17.4 7.5-46.6 19.7-84.5 15.7-15.3-1.6-27.7-5.4-36.3-8.7-1.9 4.2-3.7 10.2-1.6 15.7 6.8 17.9 49.2 17.6 72 14.1 12.7-1.9 33.8-7 57.4-22.7 28.4-8.4 99-33.4 120.2-89.9 6.2-16.5 9.9-40.2 11.9-53.1 2.8-18.2 6.9-45.5 4.3-80.7 0 0-3.8-50.9-32-92.6-1.3-2-4.3-6.2-8.7-6.5-3.4-.2-6.4 2.3-7.9 3.8z" fill="#3d3d3d" opacity=".15"/><path d="m1057.6 590.1c-3-.5-9.4 32.7-16.2 53.6-11.8 36.2-40.6 84.1-117 131.6 17.3-3.9 41.9-12.1 66.6-29.8 12.5-9 33.6-24.1 48.2-52 10.1-19.3 12.8-36.6 16.2-59 3.1-19.7 4.7-44 2.2-44.4z" fill="#3d3d3d" opacity=".09"/><path d="m781.5 268.2c-.5 23.1-1 46.1-1.5 69.2-7 29.2 3.9 58.8 26.6 73.8 24.7 16.3 52.3 8.1 56.3 6.8.2 5.6 0 12.6-1.5 20.5-1.3 7.3-3.4 13.4-5.3 18.2 12.2 11.4 23.5 14.3 29.7 15.2 29.4 4.3 63-19.3 80.6-60.1-5.3-5.6-12.4-14-19-25.1-3.8-6.3-12.6-22.2-17.5-44.9-5-23.2-.1-26.3-3.8-43.3-4.2-19.4-16.3-41.4-32.7-52.5-27.6-18.3-74-10.2-111.9 22.2z" fill="#fff" stroke="#161616" stroke-miterlimit="10" stroke-width="3"/><path d="m777.4 346.5c-7 3.8-7.5 15-8.2 29.8-.7 13.8-1.4 30.3 9 46.8 7.9 12.6 18.6 18.8 23 21.3 22.8 13 46 9 53.3 7.4-4.6-1.9-9.3-3.8-13.9-5.7 5.7-.2 15.3-1.3 25.4-6.6 10.4-5.4 16.3-12.6 21.3-18.9 5.9-7.4 15.2-21.1 20.5-41.8-2.6-4.5-12.6-22.7-7.4-45.1 2.9-12.4 9.2-20.9 13.1-25.4 6.1.4 9.4 2.9 10.7 4.1 6.7 6.1 7.5 18.6.8 30.4 2.9-2.1 9.8-7.9 13.1-18.1 3.5-10.6.7-19.5-.8-24.6-1.9-6.1-4.7-15.2-13.1-19.7-2.4-1.3-6.2-2.9-10.7-2.5-14.4 1.4-17.4 24.5-34.2 45.8-12.6 15.9-38.5 37.7-64 34.8-19.2-2.2-28.4-17.2-37.9-12z" fill="#161616" stroke="#161616" stroke-miterlimit="10" stroke-width="3"/><path d="m812.6 306.6c1.2 15.8 1.4 31.7.5 47.5-.1 1.4 1.7 1.9 2.6 1.1 5-4.4 10-8.8 14.9-13.2 1.4-1.3-.7-3.4-2.1-2.1-5 4.4-10 8.8-14.9 13.2.9.4 1.7.7 2.6 1.1.9-15.8.7-31.7-.5-47.5-.2-2-3.2-2-3.1-.1z" fill="#161616"/><path d="m791 322c-.4-1.1-1.7-5.5.7-5.5 1.4 0 1.4 2.4 1.4 3.3s0 2.4-.7 3.2c-.7.9-1.7.2-2-.8s-.1-2.1 0-3.1c.3-1.9-2.6-2.7-2.9-.8-.5 3.2-.1 8.4 4.4 8.1 3.2-.2 4.1-4 4.1-6.7 0-2.8-1.2-6.7-4.8-6.3-4.7.6-4.4 6-3.3 9.3.8 1.9 3.7 1.1 3.1-.7z" fill="#161616"/><path d="m793.1 321.1c-.7-.8-.7-2.2 0-3.1-.8-.1-1.6-.2-2.4-.3.8 1.1 1 2.7.1 3.8.8.1 1.6.2 2.4.3-.3-.5-2.4-3.4-.7-3.5-.2 0 0-.3-.1.2 0 .4.1.9.1 1.4 0 .3-.2 1.6-.7 1.3-1.6-1.1-3.1 1.5-1.5 2.6 1.8 1.2 4.1 0 4.8-1.8.7-1.7.7-5.1-1.1-6.2-1.6-1-3.8-.1-4.7 1.4-1.2 2.1 0 4.4 1.2 6.2.5.7 1.7 1.1 2.4.3 1.7-2.1 2-5.1.4-7.4-.5-.7-1.7-1.1-2.4-.3-1.8 2.2-1.8 5.1 0 7.3 1.3 1.3 3.4-.8 2.2-2.2z" fill="#161616"/><path d="m849.2 317.9c-1-.9-2.2-3-.4-3.9s2.1 1.5 2.1 2.7c0 .7.2 3.5-1 3.5-1.1 0-1.7-2.3-2-3-.5-1.8-3.4-1.1-2.9.8.8 2.6 2.8 6.1 6 5 3.1-1 3.2-5.6 2.7-8.2-.6-3.1-3.7-5.1-6.6-3.3-3.2 2-2.5 6.2 0 8.5 1.4 1.3 3.5-.8 2.1-2.1z" fill="#161616"/><path d="m851.3 318.7c-.4-1.3-.5-2.6-.2-3.9-.7.3-1.5.6-2.2.9.7.4.7 1.7 0 2.1.7.3 1.5.6 2.2.9-.6-1.3-1.1-2.7-1.7-4-.3-.7-1-1.3-1.8-1-.7.2-1.4 1.1-1 1.8.6 1.3 1.1 2.7 1.7 4 .4.9 1.3 1.5 2.2.9 2.6-1.6 2.6-5.7 0-7.3-.8-.5-2-.1-2.2.9-.4 1.9-.3 3.7.2 5.5s3.3 1 2.8-.8z" fill="#161616"/><path d="m786.7 303.8c3.2-5.9 11.1-6.7 15.1-1.1 1.1 1.6 3.7.1 2.6-1.5-5.3-7.3-15.9-7-20.3 1.1-.9 1.7 1.7 3.2 2.6 1.5z" fill="#161616"/><path d="m839.2 303.5c4.3-7.1 14.4-6.5 17.5 1.3.7 1.8 3.6 1 2.9-.8-4.1-10.2-17.3-11.5-23-2-1 1.6 1.6 3.1 2.6 1.5z" fill="#161616"/><path d="m744.4 277.1c52 3 103.9 7.2 155.7 12.6 5.8.6 5.7-8.4 0-9-51.8-5.5-103.7-9.7-155.7-12.6-5.8-.3-5.8 8.7 0 9z" fill="#161616"/><path d="m778.1 270.5c.8-7.7 4.1-27.5 20-43.7 21.5-21.9 59-29.5 88.6-12 23.2 13.8 36.7 40.1 35.1 68-47.9-4-95.8-8.2-143.7-12.3z" fill="#5222d0"/><path d="m923.5 341.7c-.1.8-1.4 7.5-7.4 10.5-3.1 1.5-6 1.5-7.4 1.3 6.1 7.8 31.1 41.6 23.2 83-2.1 10.8-6 19.9-10 27.1 6.6-4.1 15.2-10.4 23.6-19.7 10.4-11.5 16.3-23 19.7-31-6.3-7.9-13.2-17.6-19.7-29.3-8.5-15.3-13.9-29.7-17.5-41.5-1.6-.1-3-.3-4.5-.4z" fill="#3d3d3d" opacity=".11"/><path d="m812.5 307.2c-3.6 13.8-7.3 27.7-10.9 41.5 4.1 1.6 8.2 3.2 12.2 4.8-.4-15.5-.8-30.9-1.3-46.3z" fill="#3d3d3d" opacity=".12"/><path d="m843.8 209.3c-10.3 9.4-4.6 37.8 13.5 67.9 21.4 1.9 42.8 3.9 64.2 5.8.7-8.8.8-25.9-9.1-42.3-16.9-27.9-55.9-42.9-68.6-31.4z" fill="#3a1da3" opacity=".69"/></svg>